<svg width="170" height="24" viewBox="0 0 170 24" fill="none" xmlns="http://www.w3.org/2000/svg">
<path d="M37.852 17.612C37.1053 17.612 36.4147 17.4907 35.78 17.248C35.1547 16.996 34.6087 16.646 34.142 16.198C33.6847 15.7407 33.3253 15.2087 33.064 14.602C32.8027 13.9953 32.672 13.328 32.672 12.6C32.672 11.872 32.8027 11.2047 33.064 10.598C33.3253 9.99133 33.6893 9.464 34.156 9.016C34.6227 8.55867 35.1687 8.20867 35.794 7.966C36.4287 7.714 37.1193 7.588 37.866 7.588C38.622 7.588 39.3173 7.71867 39.952 7.98C40.596 8.232 41.142 8.61 41.59 9.114L40.68 9.996C40.3067 9.604 39.8867 9.31467 39.42 9.128C38.9533 8.932 38.454 8.834 37.922 8.834C37.3713 8.834 36.858 8.92733 36.382 9.114C35.9153 9.30067 35.5093 9.562 35.164 9.898C34.8187 10.234 34.548 10.6353 34.352 11.102C34.1653 11.5593 34.072 12.0587 34.072 12.6C34.072 13.1413 34.1653 13.6453 34.352 14.112C34.548 14.5693 34.8187 14.966 35.164 15.302C35.5093 15.638 35.9153 15.8993 36.382 16.086C36.858 16.2727 37.3713 16.366 37.922 16.366C38.454 16.366 38.9533 16.2727 39.42 16.086C39.8867 15.89 40.3067 15.5913 40.68 15.19L41.59 16.072C41.142 16.576 40.596 16.9587 39.952 17.22C39.3173 17.4813 38.6173 17.612 37.852 17.612ZM47.9015 17.5V15.932L47.8315 15.638V12.964C47.8315 12.3947 47.6635 11.956 47.3275 11.648C47.0008 11.3307 46.5062 11.172 45.8435 11.172C45.4048 11.172 44.9755 11.2467 44.5555 11.396C44.1355 11.536 43.7808 11.7273 43.4915 11.97L42.9315 10.962C43.3142 10.654 43.7715 10.4207 44.3035 10.262C44.8448 10.094 45.4095 10.01 45.9975 10.01C47.0148 10.01 47.7988 10.2573 48.3495 10.752C48.9002 11.2467 49.1755 12.0027 49.1755 13.02V17.5H47.9015ZM45.4655 17.584C44.9148 17.584 44.4295 17.4907 44.0095 17.304C43.5988 17.1173 43.2815 16.8607 43.0575 16.534C42.8335 16.198 42.7215 15.82 42.7215 15.4C42.7215 14.9987 42.8148 14.6347 43.0015 14.308C43.1975 13.9813 43.5102 13.72 43.9395 13.524C44.3782 13.328 44.9662 13.23 45.7035 13.23H48.0555V14.196H45.7595C45.0875 14.196 44.6348 14.308 44.4015 14.532C44.1682 14.756 44.0515 15.0267 44.0515 15.344C44.0515 15.708 44.1962 16.002 44.4855 16.226C44.7748 16.4407 45.1762 16.548 45.6895 16.548C46.1935 16.548 46.6322 16.436 47.0055 16.212C47.3882 15.988 47.6635 15.6613 47.8315 15.232L48.0975 16.156C47.9202 16.5947 47.6075 16.9447 47.1595 17.206C46.7115 17.458 46.1468 17.584 45.4655 17.584ZM51.6627 17.5V7.112H53.0067V17.5H51.6627ZM55.5728 17.5V7.112H56.9168V17.5H55.5728ZM67.4988 17.612C66.2108 17.612 65.1981 17.2433 64.4608 16.506C63.7234 15.7687 63.3548 14.6907 63.3548 13.272V7.7H64.7548V13.216C64.7548 14.308 64.9928 15.106 65.4688 15.61C65.9541 16.114 66.6354 16.366 67.5128 16.366C68.3994 16.366 69.0808 16.114 69.5568 15.61C70.0421 15.106 70.2848 14.308 70.2848 13.216V7.7H71.6428V13.272C71.6428 14.6907 71.2741 15.7687 70.5368 16.506C69.8088 17.2433 68.7961 17.612 67.4988 17.612ZM76.445 17.584C75.829 17.584 75.241 17.5 74.681 17.332C74.1303 17.164 73.6963 16.9587 73.379 16.716L73.939 15.652C74.2563 15.8667 74.6483 16.0487 75.115 16.198C75.5816 16.3473 76.0576 16.422 76.543 16.422C77.1683 16.422 77.6163 16.3333 77.887 16.156C78.167 15.9787 78.307 15.7313 78.307 15.414C78.307 15.1807 78.223 14.9987 78.055 14.868C77.887 14.7373 77.663 14.6393 77.383 14.574C77.1123 14.5087 76.809 14.4527 76.473 14.406C76.137 14.35 75.801 14.2847 75.465 14.21C75.129 14.126 74.821 14.014 74.541 13.874C74.261 13.7247 74.037 13.524 73.869 13.272C73.701 13.0107 73.617 12.6653 73.617 12.236C73.617 11.788 73.743 11.396 73.995 11.06C74.247 10.724 74.6016 10.4673 75.059 10.29C75.5256 10.1033 76.0763 10.01 76.711 10.01C77.1963 10.01 77.6863 10.0707 78.181 10.192C78.685 10.304 79.0956 10.4673 79.413 10.682L78.839 11.746C78.503 11.522 78.153 11.368 77.789 11.284C77.425 11.2 77.061 11.158 76.697 11.158C76.109 11.158 75.6703 11.256 75.381 11.452C75.0916 11.6387 74.947 11.8813 74.947 12.18C74.947 12.432 75.031 12.628 75.199 12.768C75.3763 12.8987 75.6003 13.0013 75.871 13.076C76.151 13.1507 76.459 13.216 76.795 13.272C77.131 13.3187 77.467 13.384 77.803 13.468C78.139 13.5427 78.4423 13.65 78.713 13.79C78.993 13.93 79.217 14.126 79.385 14.378C79.5623 14.63 79.651 14.966 79.651 15.386C79.651 15.834 79.5203 16.2213 79.259 16.548C78.9976 16.8747 78.629 17.1313 78.153 17.318C77.677 17.4953 77.1076 17.584 76.445 17.584ZM81.6526 11.928C81.3913 11.928 81.1673 11.8393 80.9806 11.662C80.794 11.4753 80.7006 11.242 80.7006 10.962C80.7006 10.682 80.794 10.4533 80.9806 10.276C81.1673 10.0987 81.3913 10.01 81.6526 10.01C81.9046 10.01 82.1193 10.0987 82.2966 10.276C82.4833 10.4533 82.5766 10.682 82.5766 10.962C82.5766 11.242 82.4833 11.4753 82.2966 11.662C82.1193 11.8393 81.9046 11.928 81.6526 11.928ZM81.6526 17.584C81.3913 17.584 81.1673 17.4953 80.9806 17.318C80.794 17.1313 80.7006 16.898 80.7006 16.618C80.7006 16.338 80.794 16.1093 80.9806 15.932C81.1673 15.7547 81.3913 15.666 81.6526 15.666C81.9046 15.666 82.1193 15.7547 82.2966 15.932C82.4833 16.1093 82.5766 16.338 82.5766 16.618C82.5766 16.898 82.4833 17.1313 82.2966 17.318C82.1193 17.4953 81.9046 17.584 81.6526 17.584ZM89.3123 17.5V8.26L89.9143 8.918H87.1003V7.7H90.6983V17.5H89.3123ZM92.6879 17.5V16.548L96.6779 12.698C97.0326 12.362 97.2939 12.068 97.4619 11.816C97.6393 11.5547 97.7559 11.3167 97.8119 11.102C97.8773 10.878 97.9099 10.6633 97.9099 10.458C97.9099 9.954 97.7326 9.55733 97.3779 9.268C97.0233 8.97867 96.5053 8.834 95.8239 8.834C95.3013 8.834 94.8299 8.92267 94.4099 9.1C93.9899 9.268 93.6259 9.534 93.3179 9.898L92.3659 9.072C92.7393 8.596 93.2386 8.232 93.8639 7.98C94.4986 7.71867 95.1939 7.588 95.9499 7.588C96.6313 7.588 97.2239 7.7 97.7279 7.924C98.2319 8.13867 98.6193 8.45133 98.8899 8.862C99.1699 9.27267 99.3099 9.758 99.3099 10.318C99.3099 10.6353 99.2679 10.948 99.1839 11.256C99.0999 11.564 98.9413 11.8907 98.7079 12.236C98.4746 12.5813 98.1386 12.9687 97.6999 13.398L94.1439 16.828L93.8079 16.282H99.7299V17.5H92.6879ZM103.877 17.612C103.186 17.612 102.514 17.5047 101.861 17.29C101.217 17.0753 100.69 16.786 100.279 16.422L100.923 15.316C101.25 15.624 101.674 15.876 102.197 16.072C102.72 16.268 103.28 16.366 103.877 16.366C104.605 16.366 105.17 16.212 105.571 15.904C105.982 15.5867 106.187 15.162 106.187 14.63C106.187 14.1167 105.991 13.706 105.599 13.398C105.216 13.0807 104.605 12.922 103.765 12.922H102.981V11.942L105.893 8.358L106.089 8.918H100.727V7.7H107.195V8.652L104.297 12.222L103.569 11.788H104.031C105.216 11.788 106.103 12.054 106.691 12.586C107.288 13.118 107.587 13.7947 107.587 14.616C107.587 15.1667 107.452 15.6707 107.181 16.128C106.91 16.5853 106.5 16.9493 105.949 17.22C105.408 17.4813 104.717 17.612 103.877 17.612ZM108.753 15.092V14.112L113.765 7.7H115.277L110.307 14.112L109.593 13.888H117.419V15.092H108.753ZM114.199 17.5V15.092L114.241 13.888V11.76H115.557V17.5H114.199ZM121.408 17.612C120.718 17.612 120.046 17.5047 119.392 17.29C118.748 17.0753 118.221 16.786 117.81 16.422L118.454 15.316C118.781 15.624 119.206 15.876 119.728 16.072C120.251 16.268 120.806 16.366 121.394 16.366C122.141 16.366 122.715 16.2073 123.116 15.89C123.518 15.5727 123.718 15.148 123.718 14.616C123.718 14.252 123.63 13.9347 123.452 13.664C123.275 13.3933 122.967 13.188 122.528 13.048C122.099 12.8987 121.506 12.824 120.75 12.824H118.524L119.042 7.7H124.572V8.918H119.56L120.288 8.232L119.882 12.278L119.154 11.606H121.044C122.024 11.606 122.813 11.732 123.41 11.984C124.008 12.236 124.442 12.586 124.712 13.034C124.983 13.4727 125.118 13.9813 125.118 14.56C125.118 15.12 124.983 15.6333 124.712 16.1C124.442 16.5573 124.031 16.926 123.48 17.206C122.939 17.4767 122.248 17.612 121.408 17.612ZM130.399 17.612C129.531 17.612 128.789 17.4207 128.173 17.038C127.557 16.6553 127.086 16.1047 126.759 15.386C126.442 14.658 126.283 13.7713 126.283 12.726C126.283 11.6153 126.479 10.6773 126.871 9.912C127.263 9.14667 127.809 8.568 128.509 8.176C129.209 7.784 130.012 7.588 130.917 7.588C131.384 7.588 131.827 7.63467 132.247 7.728C132.677 7.82133 133.045 7.966 133.353 8.162L132.821 9.254C132.569 9.07667 132.28 8.95533 131.953 8.89C131.636 8.82467 131.3 8.792 130.945 8.792C129.947 8.792 129.153 9.10467 128.565 9.73C127.977 10.346 127.683 11.2653 127.683 12.488C127.683 12.684 127.693 12.9173 127.711 13.188C127.73 13.4587 127.777 13.7247 127.851 13.986L127.375 13.51C127.515 13.0807 127.735 12.7213 128.033 12.432C128.341 12.1333 128.705 11.914 129.125 11.774C129.555 11.6247 130.017 11.55 130.511 11.55C131.165 11.55 131.743 11.6713 132.247 11.914C132.751 12.1567 133.148 12.502 133.437 12.95C133.727 13.3887 133.871 13.9113 133.871 14.518C133.871 15.1433 133.717 15.6893 133.409 16.156C133.101 16.6227 132.686 16.982 132.163 17.234C131.641 17.486 131.053 17.612 130.399 17.612ZM130.343 16.478C130.773 16.478 131.146 16.3987 131.463 16.24C131.79 16.0813 132.047 15.862 132.233 15.582C132.42 15.2927 132.513 14.9567 132.513 14.574C132.513 13.9953 132.313 13.538 131.911 13.202C131.51 12.8567 130.964 12.684 130.273 12.684C129.825 12.684 129.433 12.768 129.097 12.936C128.761 13.104 128.495 13.3327 128.299 13.622C128.113 13.902 128.019 14.224 128.019 14.588C128.019 14.924 128.108 15.2367 128.285 15.526C128.463 15.806 128.724 16.0347 129.069 16.212C129.415 16.3893 129.839 16.478 130.343 16.478ZM136.522 17.5L140.68 8.288L141.044 8.918H135.22L135.92 8.232V10.668H134.576V7.7H141.968V8.652L138.006 17.5H136.522ZM146.771 17.612C145.978 17.612 145.292 17.4953 144.713 17.262C144.135 17.0287 143.687 16.6973 143.369 16.268C143.052 15.8293 142.893 15.316 142.893 14.728C142.893 14.1493 143.043 13.6593 143.341 13.258C143.649 12.8473 144.093 12.5393 144.671 12.334C145.25 12.1193 145.95 12.012 146.771 12.012C147.593 12.012 148.293 12.1193 148.871 12.334C149.459 12.5393 149.907 12.8473 150.215 13.258C150.523 13.6687 150.677 14.1587 150.677 14.728C150.677 15.316 150.519 15.8293 150.201 16.268C149.884 16.6973 149.431 17.0287 148.843 17.262C148.255 17.4953 147.565 17.612 146.771 17.612ZM146.771 16.478C147.555 16.478 148.167 16.3193 148.605 16.002C149.053 15.6753 149.277 15.2367 149.277 14.686C149.277 14.1447 149.053 13.72 148.605 13.412C148.167 13.0947 147.555 12.936 146.771 12.936C145.997 12.936 145.39 13.0947 144.951 13.412C144.513 13.72 144.293 14.1447 144.293 14.686C144.293 15.2367 144.513 15.6753 144.951 16.002C145.39 16.3193 145.997 16.478 146.771 16.478ZM146.771 12.768C146.025 12.768 145.39 12.67 144.867 12.474C144.345 12.2687 143.943 11.9793 143.663 11.606C143.383 11.2233 143.243 10.7707 143.243 10.248C143.243 9.69733 143.388 9.226 143.677 8.834C143.976 8.43267 144.391 8.12467 144.923 7.91C145.455 7.69533 146.071 7.588 146.771 7.588C147.481 7.588 148.101 7.69533 148.633 7.91C149.165 8.12467 149.581 8.43267 149.879 8.834C150.178 9.226 150.327 9.69733 150.327 10.248C150.327 10.7707 150.187 11.2233 149.907 11.606C149.627 11.9793 149.221 12.2687 148.689 12.474C148.157 12.67 147.518 12.768 146.771 12.768ZM146.771 11.872C147.453 11.872 147.985 11.732 148.367 11.452C148.759 11.172 148.955 10.7893 148.955 10.304C148.955 9.80933 148.755 9.422 148.353 9.142C147.952 8.862 147.425 8.722 146.771 8.722C146.118 8.722 145.595 8.862 145.203 9.142C144.821 9.422 144.629 9.80933 144.629 10.304C144.629 10.7893 144.816 11.172 145.189 11.452C145.572 11.732 146.099 11.872 146.771 11.872ZM155.137 7.588C156.024 7.588 156.77 7.77933 157.377 8.162C157.993 8.54467 158.46 9.1 158.777 9.828C159.094 10.5467 159.253 11.4287 159.253 12.474C159.253 13.5847 159.057 14.5227 158.665 15.288C158.273 16.0533 157.732 16.632 157.041 17.024C156.35 17.416 155.543 17.612 154.619 17.612C154.162 17.612 153.718 17.5653 153.289 17.472C152.869 17.3787 152.5 17.234 152.183 17.038L152.715 15.946C152.976 16.114 153.266 16.2353 153.583 16.31C153.91 16.3753 154.25 16.408 154.605 16.408C155.594 16.408 156.383 16.1 156.971 15.484C157.559 14.8587 157.853 13.9347 157.853 12.712C157.853 12.516 157.844 12.2827 157.825 12.012C157.806 11.7413 157.764 11.4753 157.699 11.214L158.161 11.69C158.03 12.1193 157.811 12.4833 157.503 12.782C157.204 13.0713 156.84 13.2907 156.411 13.44C155.991 13.58 155.529 13.65 155.025 13.65C154.381 13.65 153.807 13.5287 153.303 13.286C152.799 13.0433 152.402 12.7027 152.113 12.264C151.824 11.816 151.679 11.2887 151.679 10.682C151.679 10.0473 151.828 9.50133 152.127 9.044C152.435 8.57733 152.85 8.218 153.373 7.966C153.905 7.714 154.493 7.588 155.137 7.588ZM155.193 8.722C154.773 8.722 154.4 8.80133 154.073 8.96C153.746 9.11867 153.49 9.338 153.303 9.618C153.126 9.898 153.037 10.234 153.037 10.626C153.037 11.2047 153.238 11.6667 153.639 12.012C154.04 12.348 154.582 12.516 155.263 12.516C155.711 12.516 156.103 12.432 156.439 12.264C156.784 12.096 157.05 11.8673 157.237 11.578C157.433 11.2887 157.531 10.9667 157.531 10.612C157.531 10.2667 157.442 9.954 157.265 9.674C157.088 9.394 156.826 9.16533 156.481 8.988C156.136 8.81067 155.706 8.722 155.193 8.722ZM164.604 17.612C163.838 17.612 163.152 17.416 162.546 17.024C161.948 16.632 161.472 16.0627 161.118 15.316C160.772 14.5693 160.6 13.664 160.6 12.6C160.6 11.536 160.772 10.6307 161.118 9.884C161.472 9.13733 161.948 8.568 162.546 8.176C163.152 7.784 163.838 7.588 164.604 7.588C165.36 7.588 166.041 7.784 166.648 8.176C167.254 8.568 167.73 9.13733 168.076 9.884C168.421 10.6307 168.594 11.536 168.594 12.6C168.594 13.664 168.421 14.5693 168.076 15.316C167.73 16.0627 167.254 16.632 166.648 17.024C166.041 17.416 165.36 17.612 164.604 17.612ZM164.604 16.366C165.117 16.366 165.565 16.226 165.948 15.946C166.34 15.666 166.643 15.246 166.858 14.686C167.082 14.126 167.194 13.4307 167.194 12.6C167.194 11.7693 167.082 11.074 166.858 10.514C166.643 9.954 166.34 9.534 165.948 9.254C165.565 8.974 165.117 8.834 164.604 8.834C164.09 8.834 163.638 8.974 163.246 9.254C162.854 9.534 162.546 9.954 162.322 10.514C162.107 11.074 162 11.7693 162 12.6C162 13.4307 162.107 14.126 162.322 14.686C162.546 15.246 162.854 15.666 163.246 15.946C163.638 16.226 164.09 16.366 164.604 16.366Z" fill="white"/>
<path d="M21 16.42V19.956C21.0001 20.2092 20.9042 20.453 20.7316 20.6382C20.559 20.8234 20.3226 20.9363 20.07 20.954C19.633 20.984 19.276 21 19 21C10.163 21 3 13.837 3 5C3 4.724 3.015 4.367 3.046 3.93C3.06372 3.67744 3.17658 3.44101 3.3618 3.26841C3.54703 3.09581 3.79082 2.99989 4.044 3H7.58C7.70404 2.99987 7.8237 3.04586 7.91573 3.12902C8.00776 3.21218 8.0656 3.32658 8.078 3.45C8.101 3.68 8.122 3.863 8.142 4.002C8.34073 5.38892 8.748 6.73783 9.35 8.003C9.445 8.203 9.383 8.442 9.203 8.57L7.045 10.112C8.36445 13.1865 10.8145 15.6365 13.889 16.956L15.429 14.802C15.4919 14.714 15.5838 14.6509 15.6885 14.6237C15.7932 14.5964 15.9042 14.6068 16.002 14.653C17.267 15.2539 18.6156 15.6601 20.002 15.858C20.141 15.878 20.324 15.9 20.552 15.922C20.6752 15.9346 20.7894 15.9926 20.8724 16.0846C20.9553 16.1766 21.0002 16.2961 21 16.42Z" fill="white"/>
</svg>
